<?xml version="1.0" encoding="UTF-8"?>
<svg width="48px" height="71px" viewBox="0 0 48 71" version="1.1" xmlns="http://www.w3.org/2000/svg" xmlns:xlink="http://www.w3.org/1999/xlink">
    <!-- Generator: Sketch 52.6 (67491) - http://www.bohemiancoding.com/sketch -->
    <title>Group</title>
    <desc>Created with Sketch.</desc>
    <g id="Page-1" stroke="none" stroke-width="1" fill="none" fill-rule="evenodd">
        <g id="Mobile" transform="translate(-134.000000, -291.000000)">
            <g id="Group" transform="translate(134.000000, 291.000000)">
                <ellipse id="Oval" fill-opacity="0.15" fill="#555555" fill-rule="nonzero" cx="24" cy="68" rx="12" ry="3"></ellipse>
                <path d="M23.625,62.0323174 C39.375,44.6995531 47.25,31.7597774 47.25,23.2129903 C47.25,10.3928098 36.6727272,0 23.625,0 C10.5772728,0 0,10.3928098 0,23.2129903 C0,31.7597774 7.875,44.6995531 23.625,62.0323174 Z" id="Oval" fill="#555555" fill-rule="nonzero"></path>
                <g id="Logo" transform="translate(12.000000, 11.000000)" stroke="#FFFFFF" stroke-linecap="round">
                    <g id="Frame-Copy-3" transform="translate(0.250000, 0.034483)">
                        <g id="Frame">
                            <path d="M6.16677232,0.606506689 L16.7991384,10.7149515" id="Line" stroke-width="0.64125" fill-rule="nonzero"></path>
                            <path d="M6.11361049,0.606506689 L16.7459766,10.7149515" id="Line-Copy" stroke-width="0.64125" fill-rule="nonzero" transform="translate(11.456374, 5.660729) scale(-1, 1) translate(-11.456374, -5.660729) "></path>
                            <path d="M6.16677232,20.8233963 L16.7991384,20.8233963" id="Line-2-Copy" stroke-width="0.64125" fill-rule="nonzero"></path>
                            <path d="M6.16677232,0 L6.16677232,20.8233963" id="Line-2-Copy-2" stroke-width="0.64125" fill-rule="nonzero"></path>
                            <path d="M16.7725575,0 L16.7991384,20.8233963" id="Line-2-Copy-3" stroke-width="0.64125" fill-rule="nonzero"></path>
                            <path d="M6.16677232,0.606506689 L16.7991384,0.606506689" id="Line-2" stroke-width="0.64125" fill-rule="nonzero"></path>
                            <path d="M0.0797427455,3.48741346 L6.16677232,10.7149515" id="Line" stroke-width="0.64125" fill-rule="nonzero"></path>
                            <path d="M16.7991384,3.48741346 L22.886168,10.7149515" id="Line-Copy-6" stroke-width="0.64125" fill-rule="nonzero" transform="translate(19.829363, 7.075911) scale(-1, 1) translate(-19.829363, -7.075911) "></path>
                            <path d="M0.0797427455,12.180676 L6.16677232,20.8233963" id="Line-Copy-2" stroke-width="0.64125" fill-rule="nonzero"></path>
                            <path d="M16.7991384,12.180676 L22.886168,20.8233963" id="Line-Copy-7" stroke-width="0.64125" fill-rule="nonzero" transform="translate(19.829363, 16.476765) scale(-1, 1) translate(-19.829363, -16.476765) "></path>
                            <path d="M0.0531618304,0.606506689 L6.14019141,12.1301338" id="Line-Copy" stroke-width="0.64125" fill-rule="nonzero" transform="translate(3.109967, 6.368320) scale(-1, 1) translate(-3.109967, -6.368320) "></path>
                            <path d="M16.7725575,0.606506689 L22.8595871,12.1301338" id="Line-Copy-8" stroke-width="0.64125" fill-rule="nonzero"></path>
                            <path d="M0.0531618304,10.7149515 L6.14019141,20.8233963" id="Line-Copy-3" stroke-width="0.64125" fill-rule="nonzero" transform="translate(3.109967, 15.769174) scale(-1, 1) translate(-3.109967, -15.769174) "></path>
                            <path d="M16.7725575,10.7149515 L22.8595871,20.8233963" id="Line-Copy-9" stroke-width="0.64125" fill-rule="nonzero"></path>
                            <path d="M0.0531618304,12.1301338 L6.11361049,10.7149515" id="Line-2" stroke-width="0.64125" fill-rule="nonzero"></path>
                            <path d="M0.0531618304,20.8233963 L6.16677232,20.8233963" id="Line-2-Copy" stroke-width="0.64125" fill-rule="nonzero"></path>
                            <path d="M0.0797427455,3.43687124 L6.16677232,0.606506689" id="Line-2" stroke-width="0.64125" fill-rule="nonzero"></path>
                            <path d="M0.0531618304,2.62819565 L0.0797427455,20.8233963" id="Line-3" stroke-width="0.64125" fill-rule="nonzero"></path>
                            <path d="M16.7991384,12.1301338 L22.8595871,10.7149515" id="Line-2" stroke-width="0.64125" fill-rule="nonzero" transform="translate(19.855944, 11.422543) scale(-1, 1) translate(-19.855944, -11.422543) "></path>
                            <path d="M16.8523002,20.8233963 L22.9659107,20.8233963" id="Line-2-Copy" stroke-width="0.64125" fill-rule="nonzero" transform="translate(19.882525, 20.823396) scale(-1, 1) translate(-19.882525, -20.823396) "></path>
                            <path d="M16.7725575,3.43687124 L22.8595871,0.606506689" id="Line-2" stroke-width="0.64125" fill-rule="nonzero" transform="translate(19.829363, 2.021689) scale(-1, 1) translate(-19.829363, -2.021689) "></path>
                            <path d="M22.9127489,2.62819565 L22.9393298,20.8233963" id="Line-3" stroke-width="0.64125" fill-rule="nonzero" transform="translate(22.912749, 11.725796) scale(-1, 1) translate(-22.912749, -11.725796) "></path>
                        </g>
                    </g>
                </g>
            </g>
        </g>
    </g>
</svg>